HIERARCHY
ROOT Hips
{
	OFFSET 0.00 0.00 0.00
	CHANNELS 6 Xposition Yposition Zposition Yrotation Xrotation Zrotation
	JOINT Spine
	{
		OFFSET	0.0000	9.2263	1.5771
		CHANNELS 3 Xrotation Yrotation Zrotation
		JOINT Spine1
		{
			OFFSET	0.0000	16.2540	-0.1656
			CHANNELS 3 Xrotation Yrotation Zrotation
			JOINT Spine2
			{
				OFFSET	0.0000	13.6396	-1.2923
				CHANNELS 3 Xrotation Yrotation Zrotation
				JOINT Neck
				{
					OFFSET	0.0000	13.8774	-4.3542
					CHANNELS 3 Xrotation Yrotation Zrotation
					JOINT Neck1
					{
						OFFSET	0.0000	4.3400	0.9269
						CHANNELS 3 Xrotation Yrotation Zrotation
						JOINT Head
						{
							OFFSET	0.0000	4.0266	0.8585
							CHANNELS 3 Xrotation Yrotation Zrotation
							End Site
							{
								OFFSET 0.0000 23.0297 0.1231
							}
						}
					}
				}
				JOINT LeftShoulder
				{
					OFFSET	6.1442	10.1870	-3.7932
					CHANNELS 3 Zrotation Xrotation Yrotation
					JOINT LeftArm
					{
						OFFSET	12.3191	-1.1130	-1.7935
						CHANNELS 3 Zrotation Xrotation Yrotation
						JOINT LeftForeArm
						{
							OFFSET	27.6870	0.0000	0.0000
							CHANNELS 3 Xrotation Zrotation Yrotation
							JOINT LeftHand
							{
								OFFSET	27.8738	0.0000	0.0000
								CHANNELS 3 Zrotation Yrotation Xrotation
								JOINT LeftHandThumb1
								{
									OFFSET	2.3785	-1.0029	2.6209
									CHANNELS 3 Zrotation Xrotation Yrotation
									JOINT LeftHandThumb2
									{
										OFFSET	3.3624	-1.0029	2.8398
										CHANNELS 3 Zrotation Xrotation Yrotation
										JOINT LeftHandThumb3
										{
											OFFSET	4.5018	-1.3445	2.1783
											CHANNELS 3 Zrotation Xrotation Yrotation
											End Site
											{
												OFFSET 2.6000 -1.0000 1.0000
											}
										}
									}
								}
								JOINT LeftHandMiddle1
								{
									OFFSET	10.4639	0.6148	0.4298
									CHANNELS 3 Zrotation Xrotation Yrotation
									JOINT LeftHandMiddle2
									{
										OFFSET	5.7921	0.0000	0.0000
										CHANNELS 3 Zrotation Xrotation Yrotation
										JOINT LeftHandMiddle3
										{
											OFFSET	3.7132	0.0000	0.0000
											CHANNELS 3 Zrotation Xrotation Yrotation
											End Site
											{
												OFFSET 2.3000 0.0000 0.0000
											}
										}
									}
								}
								JOINT LeftHandIndex1
								{
									OFFSET	10.3945	0.6148	2.7055
									CHANNELS 3 Zrotation Xrotation Yrotation
									JOINT LeftHandIndex2
									{
										OFFSET	5.5493	0.0000	0.0000
										CHANNELS 3 Zrotation Xrotation Yrotation
										JOINT LeftHandIndex3
										{
											OFFSET	3.3911	0.0000	0.0000
											CHANNELS 3 Zrotation Xrotation Yrotation
											End Site
											{
												OFFSET 2.5000 0.0000 0.0000
											}
										}
									}
								}
								JOINT LeftHandRing1
								{
									OFFSET	10.3252	0.3211	-1.8755
									CHANNELS 3 Zrotation Xrotation Yrotation
									JOINT LeftHandRing2
									{
										OFFSET	5.4452	0.0000	0.0000
										CHANNELS 3 Zrotation Xrotation Yrotation
										JOINT LeftHandRing3
										{
											OFFSET	3.7132	0.0000	0.0000
											CHANNELS 3 Zrotation Xrotation Yrotation
											End Site
											{
												OFFSET 2.0000 0.0000 0.0000
											}
										}
									}
								}
								JOINT LeftHandPinky1
								{
									OFFSET	10.0130	-0.0783	-3.9671
									CHANNELS 3 Zrotation Xrotation Yrotation
									JOINT LeftHandPinky2
									{
										OFFSET	3.6763	0.0000	0.0000
										CHANNELS 3 Zrotation Xrotation Yrotation
										JOINT LeftHandPinky3
										{
											OFFSET	2.8113	0.0000	0.0000
											CHANNELS 3 Zrotation Xrotation Yrotation
											End Site
											{
												OFFSET 2.9000 0.0000 0.0000
											}
										}
									}
								}
							}
						}
					}
				}
				JOINT RightShoulder
				{
					OFFSET	-6.1402	10.1870	-3.7932
					CHANNELS 3 Zrotation Xrotation Yrotation
					JOINT RightArm
					{
						OFFSET	-12.3231	-1.1130	-1.7935
						CHANNELS 3 Zrotation Xrotation Yrotation
						JOINT RightForeArm
						{
							OFFSET	-27.6870	0.0000	0.0000
							CHANNELS 3 Xrotation Zrotation Yrotation
							JOINT RightHand
							{
								OFFSET	-27.8738	0.0000	0.0000
								CHANNELS 3 Zrotation Yrotation Xrotation
								JOINT RightHandThumb1
								{
									OFFSET	-2.5178	-0.9367	2.5137
									CHANNELS 3 Zrotation Xrotation Yrotation
									JOINT RightHandThumb2
									{
										OFFSET	-3.2638	-1.0870	2.9669
										CHANNELS 3 Zrotation Xrotation Yrotation
										JOINT RightHandThumb3
										{
											OFFSET	-4.4165	-1.3703	2.1350
											CHANNELS 3 Zrotation Xrotation Yrotation
											End Site
											{
												OFFSET -2.6000 -1.0000 1.0000
											}
										}
									}
								}
								JOINT RightHandIndex1
								{
									OFFSET	-10.4665	0.4896	2.7120
									CHANNELS 3 Zrotation Xrotation Yrotation
									JOINT RightHandIndex2
									{
										OFFSET	-5.3768	0.0000	0.0000
										CHANNELS 3 Zrotation Xrotation Yrotation
										JOINT RightHandIndex3
										{
											OFFSET	-3.3855	0.0000	0.0000
											CHANNELS 3 Zrotation Xrotation Yrotation
											End Site
											{
												OFFSET -2.6000 0.0000 0.0000
											}
										}
									}
								}
								JOINT RightHandMiddle1
								{
									OFFSET	-10.7596	0.4896	0.4278
									CHANNELS 3 Zrotation Xrotation Yrotation
									JOINT RightHandMiddle2
									{
										OFFSET	-5.6168	0.0000	0.0000
										CHANNELS 3 Zrotation Xrotation Yrotation
										JOINT RightHandMiddle3
										{
											OFFSET	-3.7364	0.0000	0.0000
											CHANNELS 3 Zrotation Xrotation Yrotation
											End Site
											{
												OFFSET -2.3000 0.0000 0.0000
											}
										}
									}
								}
								JOINT RightHandRing1
								{
									OFFSET	-10.4702	0.3879	-1.9363
									CHANNELS 3 Zrotation Xrotation Yrotation
									JOINT RightHandRing2
									{
										OFFSET	-5.4013	0.0000	0.0000
										CHANNELS 3 Zrotation Xrotation Yrotation
										JOINT RightHandRing3
										{
											OFFSET	-3.3916	0.0000	0.0000
											CHANNELS 3 Zrotation Xrotation Yrotation
											End Site
											{
												OFFSET -2.2000 0.0000 0.0000
											}
										}
									}
								}
								JOINT RightHandPinky1
								{
									OFFSET	-9.9715	-0.1191	-3.9540
									CHANNELS 3 Zrotation Xrotation Yrotation
									JOINT RightHandPinky2
									{
										OFFSET	-3.6528	0.0000	0.0000
										CHANNELS 3 Zrotation Xrotation Yrotation
										JOINT RightHandPinky3
										{
											OFFSET	-2.7820	0.0000	0.0000
											CHANNELS 3 Zrotation Xrotation Yrotation
											End Site
											{
												OFFSET -2.9000 0.0000 0.0000
											}
										}
									}
								}
							}
						}
					}
				}
			}
		}
	}
	JOINT LeftUpLeg
	{
		OFFSET	9.6338	-3.2733	0.0000
		CHANNELS 3 Xrotation Yrotation Zrotation
		JOINT LeftLeg
		{
			OFFSET	0.0000	-41.7300	-1.7300
			CHANNELS 3 Xrotation Yrotation Zrotation
			JOINT LeftFoot
			{
				OFFSET	0.0126	-39.1900	-0.8477
				CHANNELS 3 Xrotation Yrotation Zrotation
				JOINT LeftToeBase
				{
					OFFSET	-0.1833	-12.1931	8.2823
					CHANNELS 3 Xrotation Yrotation Zrotation
					End Site
					{
						OFFSET 0.0000 0.0000 10.1681
					}
				}
			}
		}
	}
	JOINT RightUpLeg
	{
		OFFSET	-9.6338	-3.2733	0.0000
		CHANNELS 3 Xrotation Yrotation Zrotation
		JOINT RightLeg
		{
			OFFSET	0.0000	-41.7300	-1.7300
			CHANNELS 3 Xrotation Yrotation Zrotation
			JOINT RightFoot
			{
				OFFSET	0.0126	-39.1900	-0.8477
				CHANNELS 3 Xrotation Yrotation Zrotation
				JOINT RightToeBase
				{
					OFFSET	-0.1833	-12.1931	8.2823
					CHANNELS 3 Xrotation Yrotation Zrotation
					End Site
					{
						OFFSET 0.0032 0.0000 10.1681
					}
				}
			}
		}
	}
}
MOTION
Frames: 4
Frame Time: 0.0333333
0.0375 86.1992 1.8648 -24.7469 -2.4789 0.4833 2.0720 17.3843 3.8384 2.8958 2.3772 3.4852 2.8479 2.4530 3.4835 2.1666 1.1907 -4.2064 -0.0000 0.0000 -0.0000 5.5683 1.7352 -7.8713 -7.2035 5.2125 -11.0361 -63.3473 -9.4867 -33.9570 -0.0000 -0.0000 -132.4214 8.1483 11.5732 30.6460 -9.1948 9.9447 21.3315 -7.1120 -1.1907 3.7989 6.5826 -0.7621 54.0307 -80.8751 1.4160 0.8679 -93.3070 -1.0738 1.0136 -53.0349 -0.4047 0.8112 -80.1188 1.4250 0.6736 -93.3061 -1.0738 1.0136 -53.8380 -0.4162 0.8197 -79.5215 1.4319 0.8027 -93.9412 -1.0850 1.0129 -54.2298 -0.4218 0.8237 -82.9187 1.3897 2.6944 -93.2884 3.0069 1.2446 -51.5857 -0.3844 0.7955 5.4264 3.4951 19.7646 49.1183 4.1668 43.1574 0.0000 0.0000 120.0521 -22.6226 -10.8451 2.1330 15.9929 0.1670 -29.8550 -0.1393 0.9070 3.8738 -12.8249 34.3125 -46.0420 87.2803 -0.0059 -2.2286 89.8835 -2.2803 -2.2850 55.2074 -0.9811 -1.8763 88.0370 -0.0356 -2.3084 89.8839 -2.2803 -2.2850 54.4520 -0.3110 -1.8582 85.9224 0.0463 -2.3212 91.4197 -2.3416 -2.2843 56.1092 -0.6705 -1.8962 87.2803 -0.0059 -2.2286 89.8835 -2.2803 -2.2850 55.2074 -0.9811 -1.8763 -36.5151 9.0731 18.3783 29.6832 -9.8795 5.4599 1.0355 -3.5571 -16.5070 -1.0635 -0.0000 -0.0000 1.7406 -17.3247 -20.1167 32.7072 -3.5882 1.6065 -28.6468 -5.5508 20.0309 -0.5050 0.0000 0.0000 
0.8350 86.5057 2.7014 -25.1791 -2.8548 0.6989 2.8775 17.3684 3.1105 3.2861 2.2924 3.0160 3.2503 2.3448 3.0236 2.1228 1.0459 -3.8231 -0.0000 0.0000 -0.0000 5.4505 1.3947 -7.9410 -7.2204 5.3898 -11.5021 -62.7254 -9.8028 -35.3170 0.0000 0.0000 -130.8881 6.9742 11.1705 30.6642 -9.1948 9.9447 21.3315 -7.1120 -1.1907 3.7989 6.5826 -0.7621 54.0307 -80.8751 1.4160 0.8679 -93.3070 -1.0738 1.0136 -53.0349 -0.4047 0.8112 -80.1188 1.4250 0.6736 -93.3061 -1.0738 1.0136 -53.8380 -0.4162 0.8197 -79.5215 1.4319 0.8027 -93.9411 -1.0850 1.0129 -54.2298 -0.4218 0.8237 -82.9187 1.3897 2.6944 -93.2884 3.0069 1.2445 -51.5858 -0.3844 0.7955 5.0501 3.2762 19.3590 50.2535 4.8550 42.1349 0.0000 0.0000 120.7992 -23.0827 -8.8992 2.4674 15.9929 0.1670 -29.8550 -0.1393 0.9071 3.8738 -12.8249 34.3124 -46.0420 87.2803 -0.0059 -2.2286 89.8835 -2.2803 -2.2849 55.2073 -0.9811 -1.8763 88.0370 -0.0356 -2.3084 89.8839 -2.2803 -2.2850 54.4520 -0.3110 -1.8582 85.9224 0.0463 -2.3212 91.4197 -2.3416 -2.2843 56.1092 -0.6705 -1.8962 87.2803 -0.0059 -2.2286 89.8835 -2.2803 -2.2849 55.2073 -0.9811 -1.8763 -35.5611 9.6358 17.7363 30.8385 -9.9903 5.0851 3.8772 -5.4672 -15.0732 -0.5850 -0.0000 -0.0000 5.6619 -18.9224 -20.1773 26.0947 -4.1167 0.4146 -25.6094 -5.0928 20.1066 -2.4077 -0.0000 -0.0000 
1.8116 86.6559 3.8153 -25.6703 -3.3102 1.6484 3.4462 17.4411 2.3183 3.5187 2.3256 2.4644 3.4917 2.3615 2.4778 2.2542 0.9068 -3.4966 -0.0000 0.0000 -0.0000 5.3512 1.1389 -8.1040 -7.3529 5.4369 -11.5618 -62.2847 -9.6588 -36.3557 -0.0000 -0.0000 -128.1948 6.0157 11.1007 30.4535 -9.1948 9.9447 21.3315 -7.1120 -1.1907 3.7989 6.5827 -0.7621 54.0307 -80.8751 1.4160 0.8679 -93.3070 -1.0738 1.0136 -53.0349 -0.4047 0.8112 -80.1188 1.4250 0.6736 -93.3061 -1.0738 1.0136 -53.8380 -0.4162 0.8197 -79.5215 1.4319 0.8027 -93.9412 -1.0850 1.0129 -54.2298 -0.4218 0.8237 -82.9187 1.3897 2.6944 -93.2884 3.0069 1.2446 -51.5858 -0.3844 0.7955 5.1695 3.3064 19.2747 51.0930 5.5142 41.3456 0.0000 0.0000 121.3277 -23.5051 -7.8797 2.8438 15.9928 0.1670 -29.8550 -0.1393 0.9071 3.8738 -12.8249 34.3124 -46.0420 87.2803 -0.0059 -2.2286 89.8835 -2.2803 -2.2850 55.2073 -0.9811 -1.8763 88.0370 -0.0356 -2.3083 89.8839 -2.2803 -2.2850 54.4520 -0.3110 -1.8582 85.9224 0.0463 -2.3212 91.4197 -2.3416 -2.2843 56.1092 -0.6705 -1.8962 87.2803 -0.0059 -2.2286 89.8835 -2.2803 -2.2850 55.2073 -0.9811 -1.8763 -35.2078 10.0779 16.6481 35.2955 -9.8858 4.2245 0.7168 -4.9933 -13.1651 -0.3964 -0.0000 -0.0000 5.7160 -20.3459 -22.9664 24.9410 -2.4489 -0.6956 -19.7351 -4.1606 20.7309 -7.1780 0.0000 -0.0000 
2.8608 87.0513 4.9644 -27.1963 -3.1955 2.4707 3.6609 17.6617 1.7021 3.5384 2.5381 2.0131 3.5149 2.5657 2.0296 2.4200 0.8611 -3.3674 -0.0000 0.0000 -0.0000 5.3165 1.2256 -8.4762 -7.5949 5.3537 -11.2207 -62.1352 -9.2903 -36.6024 -0.0000 -0.0000 -124.6817 5.8752 11.2645 30.9089 -9.1948 9.9447 21.3315 -7.1120 -1.1907 3.7989 6.5826 -0.7621 54.0307 -80.8751 1.4160 0.8679 -93.3070 -1.0738 1.0136 -53.0349 -0.4048 0.8112 -80.1188 1.4250 0.6736 -93.3061 -1.0738 1.0136 -53.8380 -0.4162 0.8197 -79.5215 1.4319 0.8027 -93.9412 -1.0850 1.0129 -54.2298 -0.4218 0.8238 -82.9187 1.3897 2.6944 -93.2884 3.0069 1.2445 -51.5858 -0.3844 0.7955 5.7132 3.5651 19.5283 51.2510 6.0065 41.0142 0.0000 0.0000 121.3193 -23.6977 -7.5597 3.2347 15.9928 0.1670 -29.8550 -0.1393 0.9070 3.8738 -12.8249 34.3124 -46.0420 87.2803 -0.0059 -2.2286 89.8835 -2.2803 -2.2850 55.2073 -0.9811 -1.8763 88.0370 -0.0356 -2.3083 89.8839 -2.2803 -2.2850 54.4520 -0.3110 -1.8582 85.9224 0.0463 -2.3212 91.4197 -2.3416 -2.2843 56.1092 -0.6705 -1.8962 87.2803 -0.0059 -2.2286 89.8835 -2.2803 -2.2850 55.2073 -0.9811 -1.8763 -34.2577 10.5453 15.4847 38.3543 -9.7894 3.7081 -2.8634 -3.7040 -11.8570 -0.2094 0.0000 0.0000 3.4792 -20.6883 -26.0061 25.2012 0.8163 -2.4634 -10.9171 -2.5510 20.7899 -13.1980 -0.0072 1.0243 
